# xmcd
#
# Track frame offsets:
#	150
#	8054
#	18098
#	27635
#	37563
#	46627
#	57711
#	67714
#	78734
#	89204
#	99452
#	111025
#	119478
#	129747
#	138715
#	151669
#	163540
#	171820
#	185321
#	196621
#	206793
#	216318
#	224938
#
# Disc length: 3121 seconds
#
# Revision: 1
# Processed by: cddbd v1.5.2PL0 Copyright (c) Steve Scherf et al.
# Submitted via: audiograbber 1.83.01
#
DISCID=450c2f17
DTITLE=conway twitty - six classic albums cd2
DYEAR=2013
DGENRE=Country
TTITLE0=just because
TTITLE1=heartbreak hotel
TTITLE2=easy to fall in love
TTITLE3=my adobe hacienda
TTITLE4=a huggin' and kissin'
TTITLE5=can't we go steady
TTITLE6=lonely blue boy
TTITLE7=sorry
TTITLE8=blue moon
TTITLE9=eternal tears
TTITLE10=trouble in mind
TTITLE11=pretty eyed baby
TTITLE12=reelin' and rockin'
TTITLE13=handy man
TTITLE14=whole lotta shakin' goin' on
TTITLE15=splish splash
TTITLE16=blue suede shoes
TTITLE17=shake rattle and roll
TTITLE18=diana
TTITLE19=jailhouse rock
TTITLE20=treat me nice
TTITLE21=great balls of fire
TTITLE22=the girl can't help it
EXTD=
EXTT0=
EXTT1=
EXTT2=
EXTT3=
EXTT4=
EXTT5=
EXTT6=
EXTT7=
EXTT8=
EXTT9=
EXTT10=
EXTT11=
EXTT12=
EXTT13=
EXTT14=
EXTT15=
EXTT16=
EXTT17=
EXTT18=
EXTT19=
EXTT20=
EXTT21=
EXTT22=
PLAYORDER=
